<?xml version="1.0" encoding="utf-8"?>
<!-- Generator: Adobe Illustrator 24.3.0, SVG Export Plug-In . SVG Version: 6.00 Build 0)  -->
<svg version="1.1" id="Layer_1" xmlns="http://www.w3.org/2000/svg" xmlns:xlink="http://www.w3.org/1999/xlink" x="0px" y="0px"
	 viewBox="0 0 1080 1080" style="enable-background:new 0 0 1080 1080;" xml:space="preserve">
<g>
	<path d="M980.66,563.29c0,44.97-10.39,84.39-31.16,118.2c-20.78,33.85-49.89,60.07-87.37,78.7
		c-37.49,18.63-80.61,27.94-129.44,27.94H540.24c-7.21,0-13.73-4.35-16.48-11.02l-21.92-53.04l-3.11-7.51l-10.24-24.78h-0.02
		l-63.32-152.85h-0.02l-38.57-93.12c-0.8-1.93-3.52-1.93-4.32,0l-43.41,104.8l-0.27,0.66l-58.73,140.51h-0.15l-13.34,32.29
		l-21.93,53.04c-2.76,6.67-9.26,11.02-16.47,11.02h-67.26c-12.91,0-21.55-13.3-16.28-25.08l184.55-414.02
		c2.86-6.43,9.24-10.58,16.28-10.58h79.65c7.02,0,13.4,4.13,16.28,10.54l153.42,343.13c2.88,6.41,9.24,10.54,16.28,10.54h116.66
		c44.97,0,80.83-12.52,107.61-37.59c26.76-25.05,40.15-58.98,40.15-101.82c0-42.82-13.39-76.77-40.15-101.82
		c-26.78-25.05-62.64-37.57-107.61-37.57l-125.97,0.34c-7.11,0.02-11.7,7.51-8.48,13.84l17.82,35.22c3.22,6.35-1.4,13.84-8.51,13.84
		h-70.73c-3.72,0-7.11-2.17-8.67-5.55l-59.54-129.61c-2.91-6.31,1.71-13.52,8.67-13.52h260.56c48.83,0,91.95,9.31,129.44,27.94
		c37.47,18.62,66.58,44.87,87.37,78.68C970.27,478.94,980.66,518.32,980.66,563.29z"/>
</g>
</svg>
